# xmcd
#
# Track frame offsets:
#	150
#	12859
#	25655
#	37689
#	49204
#	59033
#	68983
#	78699
#	91598
#	101567
#	114585
#	126120
#	139874
#	152845
#	163417
#	175621
#	188133
#	201339
#	212111
#	224207
#	237602
#	249002
#	259254
#	270355
#
# Disc length: 3743 seconds
#
# Revision: 1
# Processed by: cddbd v1.5.1PL2 Copyright (c) Steve Scherf et al.
# Submitted via: audiograbber 1.83.01
#
DISCID=5d0e9d18
DTITLE=Great Country Duos - Jackson
DYEAR=2003
DGENRE=Country
TTITLE0=Johnny Cash, June Carter - Jackson (live)
TTITLE1=Buck Owens, Dwight Yoakam - Streets of Bakersfield
TTITLE2=Melba Montgomery, Stan Hitchcock - We must have been out of our minds
TTITLE3=Jim Reeves, Ginny Wright - I love you
TTITLE4=George Jones, Gene Pitney - I've got five dollars and it's Saturday nig
TTITLE4=ht
TTITLE5=Hank Snow, Anita Carter - Down the trail of achin' hearts
TTITLE6=Hank Williams, Audrey Williams - I want to live and love
TTITLE7=Ernest Tubb, Andrews Sisters - I'm biting my fingernails and thinking o
TTITLE7=f you
TTITLE8=Jimmy Wakely, Margaret Whiting - Slippin' Around
TTITLE9=Delmore Bothers - Blues stay away from me
TTITLE10=Tanya Tucker, Tom Jones - I'm leaving it all up to you
TTITLE11=Red Foley, Ernest Tubb - Goodnight Irene
TTITLE12=Faron Young, Darrell McCall - Make the world go away
TTITLE13=Johnnie and Jack - Poison love
TTITLE14=Every Brothers, Bye Bye Love
TTITLE15=Merle Haggard, Bonnie Owens - Just between the two of us
TTITLE16=Stanley Brothers - Little glass of wine
TTITLE17=David Houston, Barbara Mandrell - After closing time
TTITLE18=Tennessee Erbie Ford, Kay Starr - Ain't nobody's business but my own
TTITLE19=Jimmie Rodgers, Sara Carter - The wonderful city
TTITLE20=Jean Shepard, Ferlin Husky - A dear john letter
TTITLE21=Gen Campbell, Debbie Campbell - Let it be me (live)
TTITLE22=Webb Pierce, Red Sovine - Why baby why
TTITLE23=Johnny Cash, June Carter - If I were a carpenter (live)
EXTD=
EXTT0=
EXTT1=
EXTT2=
EXTT3=
EXTT4=
EXTT5=
EXTT6=
EXTT7=
EXTT8=
EXTT9=
EXTT10=
EXTT11=
EXTT12=
EXTT13=
EXTT14=
EXTT15=
EXTT16=
EXTT17=
EXTT18=
EXTT19=
EXTT20=
EXTT21=
EXTT22=
EXTT23=
PLAYORDER=
